<?xml version="1.0" standalone="no"?>
<!DOCTYPE svg PUBLIC "-//W3C//DTD SVG 20010904//EN"
 "http://www.w3.org/TR/2001/REC-SVG-20010904/DTD/svg10.dtd">
<svg version="1.0" xmlns="http://www.w3.org/2000/svg"
 width="512.000000pt" height="512.000000pt" viewBox="0 0 512.000000 512.000000"
 preserveAspectRatio="xMidYMid meet">
<metadata>
Created by potrace 1.14, written by Peter Selinger 2001-2017
</metadata>
<g transform="translate(0.000000,512.000000) scale(0.100000,-0.100000)"
fill="#000000" stroke="none">
<path d="M2378 5055 c-2 -2 -41 -6 -87 -9 -47 -4 -87 -9 -91 -11 -3 -2 -26 -6
-50 -10 -224 -33 -481 -116 -704 -228 -418 -209 -788 -550 -1025 -945 -34 -57
-65 -111 -68 -120 -3 -9 -11 -24 -18 -32 -19 -24 -101 -217 -140 -329 -41
-120 -78 -263 -95 -371 -7 -41 -14 -84 -16 -95 -25 -135 -25 -624 1 -697 2 -7
6 -31 9 -53 21 -187 123 -502 233 -718 48 -95 159 -280 200 -332 28 -37 31
-40 68 -89 50 -67 96 -117 205 -227 347 -349 806 -593 1287 -684 167 -32 256
-39 463 -40 201 0 286 6 425 30 418 72 814 249 1145 513 114 90 301 276 389
387 245 306 425 690 500 1065 37 186 46 280 46 495 0 160 -7 292 -19 350 -2
11 -9 54 -16 95 -48 301 -190 656 -370 929 -45 68 -88 131 -95 140 -190 239
-385 421 -625 582 -125 84 -359 203 -490 249 -19 6 -44 16 -55 20 -62 26 -267
82 -350 95 -22 4 -52 9 -66 11 -110 19 -270 31 -416 31 -95 0 -173 -1 -175 -2z
m176 -1189 c330 -27 629 -159 841 -371 97 -97 107 -109 171 -210 100 -155 168
-348 191 -533 9 -76 9 -325 -1 -387 -4 -27 -9 -59 -11 -71 -13 -88 -91 -314
-127 -366 -10 -14 -18 -29 -18 -32 0 -11 -72 -117 -117 -173 -199 -245 -508
-414 -833 -457 -25 -4 -62 -9 -82 -12 -29 -4 -1052 -8 -1190 -5 l-28 1 0 1309
0 1310 23 3 c41 6 1101 0 1181 -6z"/>
<path d="M2079 3208 c-1 -4 -1 -1246 0 -1277 l1 -23 218 5 c232 5 243 6 329
39 244 91 387 300 397 578 10 256 -86 459 -272 578 -123 79 -221 100 -474 102
-109 0 -198 -1 -199 -2z"/>
</g>
</svg>
