<svg version="1.1" xmlns="http://www.w3.org/2000/svg" xmlns:xlink="http://www.w3.org/1999/xlink" width="24px" height="24px" viewBox="0,0,256,256"><g fill="#f7ba00" fill-rule="nonzero" stroke="none" stroke-width="1" stroke-linecap="butt" stroke-linejoin="miter" stroke-miterlimit="10" stroke-dasharray="" stroke-dashoffset="0" font-family="none" font-weight="none" font-size="none" text-anchor="none" style="mix-blend-mode: normal"><g transform="scale(10.66667,10.66667)"><path d="M1.402,0c-0.777,0 -1.402,0.625 -1.402,1.402v21.196c0,0.777 0.625,1.402 1.402,1.402h21.196c0.777,0 1.402,-0.625 1.402,-1.402v-21.196c0,-0.777 -0.625,-1.402 -1.402,-1.402zM4.284,5.465h3.038v13.068h-3.038v-0.986h1.863v-11.097h-1.863zM16.678,5.465h3.038v0.985h-1.863v11.098h1.863v0.986h-3.038zM8.822,9.015h1.35c0.108,0.441 0.234,0.914 0.378,1.418c0.153,0.495 0.31,0.99 0.472,1.485c0.171,0.486 0.342,0.958 0.513,1.417c0.171,0.46 0.333,0.869 0.486,1.229c0.153,-0.36 0.315,-0.77 0.486,-1.229c0.171,-0.459 0.338,-0.931 0.5,-1.417c0.17,-0.495 0.328,-0.99 0.472,-1.485c0.153,-0.504 0.284,-0.977 0.392,-1.418h1.296c-0.3405,1.28297 -0.7552,2.5451 -1.242,3.78c-0.42091,1.0939 -0.8758,2.17443 -1.364,3.24h-1.134c-0.489,-1.067 -0.94818,-2.14742 -1.377,-3.24c-0.4782,-1.23658 -0.88815,-2.49848 -1.228,-3.78z"></path></g></g></svg>